<svg width="190" height="157" viewBox="0 0 190 157" fill="none" xmlns="http://www.w3.org/2000/svg">
<path d="M63.175 49.1616H69.5084C73.625 49.1616 75.8417 50.7475 75.8417 54.0778V54.7121C75.8417 55.1879 75.8417 55.5051 75.6834 55.9808C75.525 56.4566 75.3667 56.7737 75.2084 57.0909C74.8917 57.4081 74.575 57.7253 74.2584 58.0424C73.7834 58.3596 73.3084 58.5182 72.8334 58.6768C74.1 58.8354 75.05 59.3111 75.8417 60.104C76.6334 60.897 76.95 61.8485 76.95 63.2758V63.9101C76.95 65.496 76.475 66.7647 75.3667 67.7162C74.2584 68.6677 72.675 69.1434 70.6167 69.1434H63.4917V49.1616H63.175ZM65.075 50.9061V57.8838H69.5084C70.9334 57.8838 71.8834 57.5667 72.675 57.0909C73.4667 56.6152 73.7834 55.8222 73.7834 54.5535V54.0778C73.7834 52.9677 73.4667 52.0162 72.675 51.5404C71.8834 51.0647 70.775 50.7475 69.1917 50.7475H65.075V50.9061ZM65.075 67.399H70.1417C71.725 67.399 72.8334 67.0818 73.625 66.4475C74.4167 65.8131 74.7334 65.0202 74.7334 63.7515V63.1172C74.7334 62.4828 74.575 62.0071 74.4167 61.5313C74.2584 61.0556 73.9417 60.7384 73.625 60.4212C73.15 60.104 72.675 59.9455 72.0417 59.7869C71.4084 59.6283 70.6167 59.6283 69.5084 59.6283H65.075V67.399Z" fill="white" stroke="white" stroke-width="0.5198" stroke-miterlimit="10"/>
<path d="M82.0168 49.1616V67.2404H91.8335V68.9849H79.9585V49.1616H82.0168Z" fill="white" stroke="white" stroke-width="0.5198" stroke-miterlimit="10"/>
<path d="M109.883 68.9849H107.825L105.608 62.8H97.2168L95.0001 68.9849H93.1001L100.383 49.1616H102.6L109.883 68.9849ZM97.8501 61.2141H104.975L103.075 55.8222C102.917 55.5051 102.917 55.1879 102.758 54.8707C102.6 54.5535 102.6 54.2364 102.442 53.7606C102.283 53.4434 102.125 52.9677 101.967 52.4919C101.808 52.0162 101.65 51.5404 101.492 50.9061C101.333 51.5404 101.175 52.1747 101.017 52.4919C100.858 52.9677 100.7 53.4434 100.542 53.7606C100.383 54.0778 100.225 54.5535 100.225 54.8707C100.067 55.1879 100.067 55.5051 99.9084 55.8222L97.8501 61.2141Z" fill="white" stroke="white" stroke-width="0.5198" stroke-miterlimit="10"/>
<path d="M119.383 48.8445C120.65 48.8445 121.917 49.0031 122.867 49.3202C123.817 49.6374 124.767 50.1132 125.558 50.7475L124.608 52.3334C123.658 51.699 122.867 51.2233 122.075 51.0647C121.283 50.7475 120.333 50.7475 119.383 50.7475C118.433 50.7475 117.642 50.9061 117.008 51.2233C116.375 51.5404 115.742 52.0162 115.267 52.6505C114.792 53.2849 114.475 53.9192 114.158 54.8707C113.842 55.6637 113.842 56.6152 113.842 57.7253V60.2627C113.842 62.6415 114.317 64.5445 115.425 65.8132C116.533 67.0819 117.958 67.5576 119.7 67.5576C120.967 67.5576 122.075 67.399 122.867 66.9233C123.658 66.6061 124.45 65.9718 125.083 65.496L126.192 67.0819C125.4 67.7162 124.608 68.3505 123.5 68.8263C122.392 69.3021 121.125 69.4606 119.542 69.4606C117.008 69.4606 115.108 68.6677 113.683 67.0819C112.417 65.496 111.783 63.2758 111.783 60.4212V58.0425C111.783 55.1879 112.417 52.9677 113.842 51.5404C115.108 49.6374 117.008 48.8445 119.383 48.8445Z" fill="white" stroke="white" stroke-width="0.5198" stroke-miterlimit="10"/>
<path d="M135.375 57.7253L144.083 69.1434H141.55L133.95 59.1525L131.417 61.6899V68.9849H129.517V49.1616H131.417V59.1525L140.917 49.1616H143.45L135.375 57.7253Z" fill="white" stroke="white" stroke-width="0.5198" stroke-miterlimit="10"/>
<path d="M75.2084 92.6141H65.075V101.971H63.175V82.1475H65.075V90.7111H75.2084V82.1475H77.1084V101.971H75.2084V92.6141Z" fill="white" stroke="white" stroke-width="0.5198" stroke-miterlimit="10"/>
<path d="M93.7334 82.1475V83.8919H83.7584V91.0283H93.1001V92.7727H83.7584V100.385H93.8917V102.129H81.8584V82.1475H93.7334Z" fill="white" stroke="white" stroke-width="0.5198" stroke-miterlimit="10"/>
<path d="M113.05 101.971H110.992L108.775 95.7858H100.383L98.1666 101.971H96.2666L103.55 82.1475H105.767L113.05 101.971ZM101.017 94.2H108.142L106.242 88.8081C106.083 88.4909 105.925 88.1737 105.925 87.8566C105.767 87.5394 105.767 87.2222 105.608 86.7465C105.45 86.4293 105.292 85.9535 105.133 85.4778C104.975 85.002 104.817 84.5263 104.658 83.8919C104.5 84.5263 104.342 85.1606 104.183 85.4778C104.025 85.9535 103.867 86.4293 103.708 86.7465C103.55 87.0636 103.392 87.5394 103.392 87.8566C103.233 88.1737 103.233 88.4909 103.075 88.8081L101.017 94.2Z" fill="white" stroke="white" stroke-width="0.5198" stroke-miterlimit="10"/>
<path d="M123.5 93.4071C123.342 93.4071 123.184 93.4071 123.184 93.4071C123.025 93.4071 122.867 93.4071 122.867 93.4071H117.959V101.971H116.059V82.1475H122.867C123.817 82.1475 124.767 82.306 125.559 82.6232C126.35 82.9404 126.984 83.2576 127.459 83.7333C127.934 84.2091 128.409 84.8434 128.725 85.4778C129.042 86.1121 129.2 86.905 129.2 87.698V88.1737C129.2 89.4424 128.884 90.3939 128.25 91.3454C127.617 92.1384 126.667 92.9313 125.717 93.2485L129.675 102.288H127.617L123.5 93.4071ZM117.8 83.8919V91.6626H122.075C123.817 91.6626 125.084 91.3454 125.717 90.7111C126.509 90.0768 126.825 89.1252 126.825 87.8566V87.5394C126.825 86.4293 126.509 85.4778 125.717 84.8434C124.925 84.2091 123.817 83.8919 122.234 83.8919H117.8Z" fill="white" stroke="white" stroke-width="0.5198" stroke-miterlimit="10"/>
<path d="M146.142 82.1475V83.8919H139.809V101.971H137.909V83.8919H131.575V82.1475H146.142Z" fill="white" stroke="white" stroke-width="0.5198" stroke-miterlimit="10"/>
<path d="M155.958 43.7697V107.363" stroke="white" stroke-miterlimit="10"/>
<path d="M187.942 61.2142V62.9586H164.825V61.2142H187.942ZM177.492 48.8445H185.725V50.4303H167.517V48.8445H175.75V46.4657H177.65V48.8445H177.492ZM167.992 65.0202H184.775V72.3152H182.875V66.6061H167.992V65.0202ZM176.542 59.4697C175.434 59.4697 174.325 59.4697 173.375 59.3112C172.425 59.1526 171.634 58.994 171 58.6768C170.367 58.3596 169.892 58.0425 169.417 57.5667C169.1 57.091 168.942 56.6152 168.942 55.9808V55.3465C168.942 54.7122 169.1 54.2364 169.417 53.7607C169.734 53.2849 170.209 52.9677 171 52.6505C171.634 52.3334 172.425 52.1748 173.375 52.0162C174.325 51.8576 175.275 51.8576 176.542 51.8576C177.65 51.8576 178.759 51.8576 179.709 52.0162C180.659 52.1748 181.45 52.3334 182.084 52.6505C182.717 52.9677 183.192 53.2849 183.667 53.7607C183.984 54.2364 184.142 54.7122 184.142 55.3465V55.9808C184.142 56.6152 183.984 57.091 183.667 57.5667C183.35 58.0425 182.875 58.3596 182.084 58.6768C181.45 58.994 180.659 59.1526 179.709 59.3112C178.6 59.4697 177.65 59.4697 176.542 59.4697ZM176.542 53.4435C175.75 53.4435 174.959 53.4435 174.325 53.6021C173.692 53.7606 173.059 53.7606 172.584 53.9192C172.109 54.0778 171.634 54.2364 171.475 54.5536C171.159 54.8708 171 55.0293 171 55.5051V55.9808C171 56.298 171.159 56.6152 171.475 56.9324C171.792 57.2495 172.109 57.4081 172.584 57.5667C173.059 57.7253 173.692 57.8839 174.325 57.8839C174.959 58.0425 175.75 58.0425 176.542 58.0425C177.334 58.0425 178.125 58.0425 178.759 57.8839C179.392 57.7253 180.025 57.7253 180.5 57.5667C180.975 57.4081 181.45 57.2495 181.609 56.9324C181.925 56.6152 182.084 56.4566 182.084 55.9808V55.5051C182.084 55.1879 181.925 54.8708 181.609 54.5536C181.292 54.2364 180.975 54.0778 180.5 53.9192C180.025 53.7606 179.392 53.6021 178.759 53.6021C178.125 53.4435 177.334 53.4435 176.542 53.4435Z" fill="white" stroke="white" stroke-width="0.5198" stroke-miterlimit="10"/>
<path d="M172.742 87.6981C172.742 88.0152 172.425 88.3324 172.109 88.6496C171.792 89.1253 171.159 89.6011 170.684 90.0769C170.209 90.5526 169.575 91.0284 168.942 91.6627C168.15 92.2971 167.517 92.9314 166.567 93.5657L165.3 92.1385C166.092 91.5041 166.884 91.0284 167.675 90.2354C168.467 89.6011 169.259 88.9668 169.892 88.3324C170.367 87.8567 170.684 87.5395 171 87.2223C171.317 86.9051 171.475 86.588 171.634 86.2708C171.792 85.9536 171.792 85.6365 171.95 85.1607C171.95 84.8435 171.95 84.3678 171.95 83.892V80.8789H173.85V83.7334C173.85 84.2092 173.85 84.6849 173.85 85.0021C173.85 85.3193 174.009 85.6365 174.167 85.9536C174.325 86.2708 174.484 86.588 174.8 86.9051C175.117 87.2223 175.434 87.5395 175.909 88.0152C176.542 88.6496 177.334 89.1253 177.967 89.7597C178.6 90.394 179.392 90.8698 180.025 91.3455L178.917 92.6142C178.125 91.9799 177.492 91.5041 176.859 91.0284C176.225 90.5526 175.75 90.0769 175.275 89.7597C173.692 88.8082 172.9 88.0152 172.742 87.6981ZM170.209 95.4688H185.567V104.984H170.209V95.4688ZM172.109 103.239H183.667V97.2132H172.109V103.239ZM185.567 93.8829H183.667V79.9274H185.567V93.8829Z" fill="white" stroke="white" stroke-width="0.5198" stroke-miterlimit="10"/>
<path d="M25.8083 30.2899L3.0083 45.6727V105.46L25.8083 119.574L48.7666 105.46V45.6727L25.8083 30.2899Z" stroke="white" stroke-width="1.5" stroke-miterlimit="10"/>
<path d="M3.0083 74.8525H48.7666" stroke="white" stroke-width="1.5595" stroke-miterlimit="10"/>
<path d="M25.8083 30.2899L3.0083 45.6727V105.46L25.8083 119.574L48.7666 105.46V45.6727L25.8083 30.2899Z" stroke="white" stroke-width="1.5" stroke-miterlimit="10"/>
<path d="M27.3916 45.0383H11.7166V106.094H27.3916V45.0383Z" stroke="white" stroke-width="1.5" stroke-miterlimit="10"/>
<path d="M3.0083 74.8525H48.7666" stroke="white" stroke-width="1.5" stroke-miterlimit="10"/>
</svg>
